<svg enable-background="new 0 0 823.259 440.453" height="440.453" viewBox="0 0 823.259 440.453" width="823.259" xmlns="http://www.w3.org/2000/svg"><g fill="#fff"><path d="m231.536 214.197c10.26-4.587 16.813-14.63 16.813-27.296 0-24.451-18.561-36.892-39.521-36.892h-61.539v55.019 82.492h66.56c24.017 0 40.786-15.463 40.786-39.92-.001-17.464-8.908-28.821-23.099-33.403m-59.078-39.956h33.53c11.135 0 17.031 7.204 17.031 15.282 0 8.296-5.896 15.505-17.031 15.505h-33.53zm38.551 89.08h-38.552v-34.277h38.552c11.357 0 19.652 7.422 19.652 17.248.001 9.604-8.294 17.029-19.652 17.029"/><path d="m484.22 251.383h-25.326v11.345h-48.518v-112.719h-25.33v137.511h99.174z"/><path d="m594.187 251.383h-25.325v11.345h-48.519v-112.719h-25.33v137.511h99.174z"/><path d="m714.503 150.009.218 23.638h41.087l.109 113.874h24.416l-.112-113.874h43.038v-23.638z"/><path d="m196.143 303.579h-48.855v69.601h-16.118v23.925h16.118v43.349h25.515v-43.349h23.34c30.452 0 49.158-20.01 49.158-46.763 0-26.754-18.706-46.763-49.158-46.763m-1.958 69.601h-21.382v-45.676h21.382c17.836 0 25.883 10.654 25.883 22.838 0 12.179-8.047 22.838-25.883 22.838"/><path d="m368.889 350.342c0-26.754-18.706-46.763-49.158-46.763h-58.679v69.601h-11.602v23.925h11.602v43.349h25.229v-43.349h24.532l28.494 43.349h31.756l-34.151-49.005c18.273-5.657 31.977-21.314 31.977-41.107m-82.608 22.838v-45.676h31.492c17.836 0 25.883 10.654 25.883 22.838 0 12.179-8.047 22.838-25.883 22.838z"/><path d="m441.404 303.579c-39.13 0-67.714 29.994-67.714 68.293 0 38.302 28.584 68.581 67.714 68.581 39.132 0 70.147-30.279 70.147-68.581 0-38.299-31.015-68.293-70.147-68.293m0 113.463c-23.521 0-44.75-19.775-44.75-45.17 0-25.392 21.229-45.166 44.75-45.166 23.522 0 44.751 19.774 44.751 45.166 0 25.395-21.229 45.17-44.751 45.17"/><path d="m589.869 303.578c-39.279 0-70.412 30.108-70.412 68.551 0 38.447 31.133 68.323 70.412 68.323s70.412-29.876 70.412-68.323c0-38.442-31.133-68.551-70.412-68.551m0 113.892c-23.611 0-44.921-19.85-44.921-45.341 0-25.486 21.31-45.337 44.921-45.337s44.921 19.851 44.921 45.337c0 25.491-21.31 45.341-44.921 45.341"/><path d="m679.128 358.172h-11.937v23.926h11.937v58.354h25.229v-58.354h49.111v-23.926h-49.111v-30.669h75.855v-23.925h-101.084z"/></g><path d="m173.457 30.189v-30.189h-26.169v30.019c-62.681 5.947-112.638 56.54-117.441 119.543h-29.847v23.594h30.2c5.706 54.621 45.322 99.294 97.368 112.516v-26.542c-37.905-12.215-66.443-45.478-71.728-85.974h30.937v-23.594h-31.34c4.656-48.938 43.24-88.133 91.851-93.896v31.112h26.169v-30.949c40.997 5.455 74.539 34.751 86.258 73.442h26.432c-12.637-52.821-57.58-93.213-112.69-99.082" fill="#db2840"/><g fill="#fff"><path d="m703.661 173.647v-23.638h-98.473v54.426h-.204v-.054h-10.704v24.199h10.704v-.13h.204v59.071h98.473v-24.792h-73.148v-34.279h48.914v-24.015h-48.914v-30.788z"/><path d="m260.769 150.009v78.807c0 31.645 19.299 58.705 55.963 58.705s57.701-27.061 57.701-58.705v-78.807h-25.313v73.354c0 25.095-12.529 40.152-32.388 40.152-19.642 0-30.65-15.058-30.65-40.152v-73.354z"/></g></svg>